<?xml version="1.0" standalone="no"?>
<!DOCTYPE svg PUBLIC "-//W3C//DTD SVG 20010904//EN"
 "http://www.w3.org/TR/2001/REC-SVG-20010904/DTD/svg10.dtd">
<svg version="1.0" xmlns="http://www.w3.org/2000/svg"
 width="188.000000pt" height="188.000000pt" viewBox="0 0 188.000000 188.000000"
 preserveAspectRatio="xMidYMid meet">
<metadata>
Created by potrace 1.14, written by Peter Selinger 2001-2017
</metadata>
<g transform="translate(0.000000,188.000000) scale(0.100000,-0.100000)"
fill="#000000" stroke="none">
<path d="M1021 948 c0 -213 2 -388 7 -388 4 0 6 54 5 120 -2 125 2 136 38 104
16 -14 20 -14 43 1 16 10 26 27 26 40 0 13 7 31 17 40 9 9 16 34 17 56 0 21 3
39 5 39 2 0 45 -43 96 -95 l93 -95 86 0 86 0 92 95 c51 52 95 90 98 85 3 -5 5
-45 4 -89 -1 -58 3 -81 12 -85 19 -7 25 8 18 49 l-6 38 39 -23 c52 -32 53 -32
68 -76 13 -35 14 -6 15 265 l0 305 -251 -255 c-140 -143 -238 -236 -224 -212
15 23 25 46 23 52 -1 5 -94 101 -204 214 l-202 203 -1 -388z"/>
<path d="M805 1311 c-14 -13 -42 -21 -90 -26 -71 -7 -107 -7 -122 -3 -7 3
-405 -320 -507 -411 -36 -32 -25 -11 26 50 l38 45 0 161 0 160 -73 -1 -72 -1
-3 -253 -2 -252 22 -9 c28 -10 79 -61 73 -71 -2 -4 4 -18 13 -31 17 -23 17
-21 23 86 5 102 6 99 6 -53 0 -89 3 -165 7 -169 3 -3 6 39 6 94 l0 100 77 64
c42 35 87 72 100 82 23 18 23 18 115 -60 51 -43 108 -91 126 -108 45 -40 62
-49 62 -33 0 8 -22 31 -50 51 -63 47 -69 89 -8 56 11 -6 31 -13 45 -15 37 -7
68 -30 98 -74 18 -26 35 -40 50 -40 12 0 53 -13 91 -28 59 -24 69 -32 72 -56
4 -30 23 -42 50 -31 22 8 -20 47 -296 275 -110 91 -202 170 -205 175 -2 6 80
80 183 165 104 85 191 161 194 168 9 19 -27 14 -49 -7z"/>
<path d="M1871 674 c0 -11 3 -14 6 -6 3 7 2 16 -1 19 -3 4 -6 -2 -5 -13z"/>
<path d="M1020 539 c0 -5 5 -7 10 -4 6 3 10 8 10 11 0 2 -4 4 -10 4 -5 0 -10
-5 -10 -11z"/>
</g>
</svg>
